<svg width="189" height="188" viewBox="0 0 189 188" fill="none" xmlns="http://www.w3.org/2000/svg">
<g filter="url(#filter0_f_113_1691)">
<path d="M74.1067 122.117C57.8989 112.76 56.8225 96 66.9508 78.4573C77.079 60.9146 98.1077 55.6822 114.315 65.0397C130.523 74.3973 131.867 94.929 121.739 112.472C111.611 130.014 97.6984 131.238 74.1067 122.117Z" fill="#1D255E"/>
</g>
<path fill-rule="evenodd" clip-rule="evenodd" d="M106.377 67.7051C110.858 62.5842 114.001 58.1575 120.977 57.2707C134.033 55.6333 146.114 70.1412 139.601 84.4518C137.747 88.5274 133.953 93.3777 129.751 98.1368C125.141 103.362 120.035 108.484 116.46 112.366L106.71 122.952L98.551 114.489C88.7347 104.301 72.7786 91.4837 72.1202 75.5737C71.6987 64.4281 79.7541 57.2744 89.0707 57.3884C97.3948 57.4977 100.94 61.9874 106.377 67.7051Z" fill="url(#paint0_radial_113_1691)"/>
<defs>
<filter id="filter0_f_113_1691" x="0.40918" y="0.460327" width="187.77" height="187.255" filterUnits="userSpaceOnUse" color-interpolation-filters="sRGB">
<feFlood flood-opacity="0" result="BackgroundImageFix"/>
<feBlend mode="normal" in="SourceGraphic" in2="BackgroundImageFix" result="shape"/>
<feGaussianBlur stdDeviation="30" result="effect1_foregroundBlur_113_1691"/>
</filter>
<radialGradient id="paint0_radial_113_1691" cx="0" cy="0" r="1" gradientUnits="userSpaceOnUse" gradientTransform="translate(123.829 63.6216) rotate(109.294) scale(50.3314 35.7178)">
<stop stop-color="#FC5B60"/>
<stop offset="1" stop-color="#D02A2F"/>
</radialGradient>
</defs>
</svg>
