<svg width="403" height="75" viewBox="0 0 403 75" fill="none" xmlns="http://www.w3.org/2000/svg">
<g clip-path="url(#clip0_179_21729)">
<path d="M222.128 22.9209C222.714 23.4132 224.956 23.553 225.408 23.6034C227.617 23.8383 228.281 23.9223 228.912 25.2201C229.631 26.7027 230.161 30.9096 230.591 33.0802C231.472 37.4886 234.066 38.462 235.712 40.8564C238.351 44.7053 240.142 44.7053 240.945 46.5514C241.436 47.6871 241.659 49.7346 241.821 54.115C241.899 56.308 242.368 57.0352 241.28 63.6086C241.112 64.5988 240.895 65.3596 240.694 66.4393C241.447 66.6016 242.005 66.6016 242.574 66.4393C242.596 65.3149 242.451 64.8729 242.697 63.8715C242.853 63.2338 243.444 59.9499 243.64 58.4394C244.136 54.5513 244.471 54.6968 244.951 50.3164C246.206 53.6059 246.948 54.4842 247.751 56.4087C248.315 57.7681 248.962 60.3359 249.575 64.2967C249.726 65.2813 249.268 66.361 249.229 67.3177C250.089 67.4967 250.697 67.4519 251.333 67.2114C251.255 66.2659 250.808 65.4659 250.903 64.4086C251.009 63.2729 250.061 59.5191 249.826 56.4982C249.665 54.4115 249.782 53.6507 249.508 50.8814C249.268 48.4759 249.536 47.2227 250.066 46.792C250.635 46.3388 251.879 45.7235 253.586 45.7235C255.93 45.7235 256.917 45.6172 259.098 44.8172C260.538 44.2857 261.57 43.1445 263.215 43.4913C264.114 43.6815 264.828 44.543 265.497 45.371C266.674 48.8731 268.058 49.4829 268.013 52.7947C267.974 55.6814 265.893 62.0142 265.174 63.4184C264.582 64.5764 264.052 65.0519 263.533 66.2939C264.331 66.4953 265.213 66.6128 266.055 66.2156C266.094 64.0897 266.613 64.6212 267.333 61.9359C269.547 53.6674 271.411 53.2367 271.773 51.5136C271.879 50.9989 271.533 50.1598 271.316 49.4101C271.773 49.6507 272.242 49.9192 272.733 50.2717C274.518 51.5304 275.65 52.9961 276.448 54.6464C277.04 55.8604 278.73 62.3611 278.49 64.3638C278.356 65.4995 277.692 66.0366 277.452 67.2002C278.211 67.3177 279.293 67.3624 280.013 67.0379C279.851 64.1904 281.212 64.9233 279.974 61.5163C279.355 59.8156 278.925 57.3765 278.696 55.5639C278.417 53.3597 278.473 52.0115 278.373 50.3108C278.272 48.5934 276.359 48.1458 275.243 46.9542C274.261 45.9081 273.006 44.2857 273.341 42.7976C273.703 41.1752 274.931 39.5641 275.489 37.9697C275.952 36.6438 275.628 34.8648 275.02 33.2872C276.113 34.4117 277.575 35.2732 278.719 35.7319C278.579 34.4956 278.484 32.4089 276.878 31.1334C275.466 30.0145 273.932 30.1991 272.66 29.718C270.005 27.8215 264.917 27.9222 262.284 28.4257C260.292 28.8061 255.5 31.0998 249.927 31.1781C248.181 31.2061 246.206 31.3124 244.487 31.0215C241.888 30.5795 240.727 29.2705 238.741 27.7991C236.019 25.7908 235.628 21.2873 234.496 18.8482C237.425 19.4915 238.568 18.1153 238.937 16.1069C237.045 16.2972 235.149 16.4146 233.72 17.4999C234.351 16.6384 235.69 16.2524 236.716 15.4468C238.061 14.3951 239.601 13.7517 240.995 12.7727C242.507 11.7098 242.987 9.83008 244.203 8.51541C245.274 7.35738 247.216 7.0385 247.957 5.556C248.688 4.09587 248.995 1.70708 247.812 0.543457C247.695 0.884713 248.036 2.26652 247.935 3.06651C247.824 3.9728 247.478 4.99097 246.814 5.63432C246.34 6.09306 245.118 6.78676 244.895 6.75319C244.593 6.71403 245.375 5.79096 245.453 3.98398C245.481 3.3742 245.324 1.41058 244.772 0.974222C244.593 1.31548 244.789 2.59658 244.789 3.46371C244.789 4.33083 244.61 4.98537 244.192 5.92522C244.064 6.21054 243.478 7.48605 243.255 6.56858C243.093 5.92522 243.098 5.57278 243.059 4.80076C242.998 3.64273 243.098 2.24414 242.898 1.60079C242.356 2.22176 242.223 4.33083 242.239 5.7518C242.25 6.89864 242.697 7.85528 242.356 8.90142C241.737 10.8035 240.387 12.0343 238.407 13.0692C236.108 14.2776 236.61 9.52799 236.454 8.01751C236.488 8.00632 236.521 7.98954 236.554 7.97835C237.218 7.67626 238.211 6.94899 238.697 6.39515C239.461 5.51684 240.236 3.44693 240.058 2.50707C239.634 2.75882 239.121 4.54901 238.619 5.27069C238.128 5.97557 237.575 6.66927 236.66 7.09444C236.103 7.35738 235.478 7.5364 235.322 7.35738C235.165 7.17277 235.511 6.61892 235.723 6.25529C236.354 5.1588 237.86 2.22736 237.291 1.5896C237.001 1.77981 236.744 2.93784 235.801 4.48748C235.243 5.41054 233.704 8.87345 233.062 6.3448C232.582 4.44832 234.502 1.43855 234.301 1.198C233.748 1.0973 232.264 3.84972 232.119 5.03013C231.974 6.2497 232.7 7.4357 232.7 8.53779C232.7 9.74057 232.231 10.9993 231.522 11.9671C230.736 13.0245 229.933 12.7447 229.101 11.6259C228.343 10.6021 228.644 9.15876 228.499 8.01192C227.963 8.80072 227.774 10.6692 228.41 11.8776C228.884 12.7671 230.234 13.5447 230.356 14.6133C230.379 14.8258 230.356 15.0328 230.312 15.223C230.211 15.1391 230.105 15.0496 229.994 14.9601C229.436 14.5014 228.867 14.065 228.476 13.6175C227.734 12.7727 228.036 12.0566 227.829 11.6315C226.887 13.3825 228.158 14.4007 229.575 15.7209C229.609 15.7489 229.642 15.7825 229.676 15.8104C229.391 15.6035 229.079 15.4188 228.722 15.2454C228.661 15.3797 228.605 15.5195 228.555 15.6538C227.645 15.0664 226.619 14.2161 225.76 13.7182C224.019 12.7168 224.499 11.2119 224.315 10.8483C223.74 11.4748 223.796 12.4706 224.153 13.0468C224.722 13.9811 226.039 14.8258 227.043 15.5643C227.768 16.0958 228.214 16.5993 228.421 17.2202C227.071 17.8971 226.161 19.5027 224.649 19.9615C223.718 20.2412 222.05 20.4705 221.877 20.8454C221.693 21.2426 221.548 22.4342 222.133 22.9265L222.128 22.9209ZM232.46 16.1573C232.008 16.1125 231.662 16.0286 231.366 15.9056C231.562 15.3741 231.757 14.7755 231.879 14.1545C232.047 13.2986 232.415 12.6776 232.861 12.0063C233.927 10.3951 233.642 9.09722 234.401 8.57695C234.836 8.28045 235.578 8.31961 236.303 8.07346C236.097 8.47625 235.98 8.99093 235.941 9.4217C235.896 9.98672 235.852 10.7699 235.902 11.307C236.019 12.5433 236.755 13.6454 235.796 14.5293C235.026 15.2398 233.525 16.2636 232.465 16.1629L232.46 16.1573Z" fill="#4B68E3"/>
<path d="M182.82 20.84C182.647 20.4651 180.979 20.2358 180.047 19.9561C178.53 19.5029 177.626 17.8973 176.276 17.2148C176.482 16.5938 176.934 16.0904 177.654 15.5589C178.658 14.8204 179.975 13.9757 180.544 13.0414C180.895 12.4652 180.951 11.4694 180.382 10.8429C180.192 11.2065 180.672 12.7114 178.937 13.7128C178.072 14.2107 177.051 15.061 176.142 15.6484C176.092 15.5141 176.042 15.3799 175.975 15.24C175.618 15.4134 175.3 15.6036 175.021 15.805C175.054 15.7715 175.088 15.7435 175.121 15.7155C176.538 14.3897 177.816 13.3771 176.867 11.6261C176.661 12.0456 176.957 12.7673 176.22 13.6121C175.824 14.0596 175.261 14.496 174.703 14.9547C174.591 15.0442 174.491 15.1337 174.385 15.2176C174.335 15.033 174.318 14.826 174.34 14.6079C174.463 13.5393 175.819 12.7617 176.287 11.8722C176.929 10.6694 176.739 8.79532 176.198 8.00652C176.053 9.15336 176.354 10.5967 175.595 11.6205C174.764 12.7393 173.961 13.0191 173.174 11.9617C172.46 10.9995 171.997 9.73517 171.997 8.53239C171.997 7.4303 172.722 6.2443 172.577 5.02473C172.432 3.84432 170.954 1.09749 170.396 1.19259C170.195 1.43315 172.114 4.44291 171.634 6.3394C170.993 8.86805 169.459 5.40514 168.895 4.48207C167.952 2.92684 167.696 1.77441 167.406 1.5842C166.837 2.21636 168.343 5.1534 168.973 6.24989C169.18 6.61352 169.531 7.16736 169.375 7.35198C169.219 7.53659 168.594 7.35198 168.036 7.08904C167.121 6.66387 166.563 5.97017 166.078 5.26528C165.576 4.54361 165.063 2.75342 164.639 2.50167C164.46 3.44152 165.236 5.51144 166 6.38975C166.485 6.94918 167.473 7.67086 168.142 7.97295C168.176 7.98414 168.209 7.99533 168.243 8.01211C168.086 9.52259 168.588 14.2778 166.29 13.0638C164.315 12.0233 162.959 10.7981 162.34 8.89602C162 7.85547 162.446 6.89324 162.457 5.7464C162.474 4.32543 162.34 2.21636 161.799 1.59539C161.598 2.23874 161.699 3.64292 161.637 4.79536C161.593 5.56738 161.598 5.92542 161.442 6.56317C161.213 7.48065 160.628 6.20513 160.505 5.91982C160.086 4.97997 159.908 4.33662 159.908 3.45831C159.908 2.57999 160.109 1.31008 159.925 0.968821C159.378 1.39959 159.216 3.3632 159.244 3.97858C159.322 5.78556 160.103 6.70303 159.802 6.74779C159.579 6.77576 158.357 6.08765 157.883 5.62892C157.225 4.98557 156.879 3.96739 156.761 3.06111C156.661 2.26112 157.001 0.873717 156.884 0.538055C155.702 1.70168 156.008 4.08488 156.739 5.5506C157.481 7.0331 159.423 7.35198 160.494 8.51001C161.71 9.82468 162.195 11.7044 163.701 12.7673C165.091 13.7463 166.636 14.3897 167.98 15.4414C169.012 16.247 170.346 16.6386 170.976 17.4945C169.548 16.4036 167.651 16.2862 165.76 16.1015C166.128 18.1099 167.277 19.4917 170.201 18.8428C169.068 21.2819 168.678 25.7854 165.955 27.7937C163.964 29.2651 162.809 30.5741 160.209 31.0161C158.491 31.307 156.522 31.2007 154.77 31.1727C149.197 31.0944 144.405 28.8007 142.413 28.4203C139.78 27.9168 134.697 27.8161 132.036 29.7126C130.764 30.1881 129.23 30.0091 127.819 31.128C126.212 32.4035 126.117 34.4902 125.978 35.7265C127.122 35.2678 128.583 34.4063 129.677 33.2818C129.069 34.865 128.745 36.6384 129.208 37.9643C129.766 39.5587 130.993 41.1698 131.356 42.7922C131.691 44.2803 130.435 45.9027 129.453 46.9488C128.338 48.1348 126.424 48.588 126.324 50.3054C126.223 52.0061 126.279 53.3543 126 55.5585C125.771 57.3655 125.336 59.8102 124.723 61.5109C123.484 64.9179 124.845 64.185 124.684 67.0325C125.403 67.3514 126.48 67.3123 127.244 67.1948C127.004 66.0312 126.341 65.4941 126.207 64.3584C125.967 62.3557 127.657 55.855 128.248 54.641C129.046 52.9963 130.184 51.5306 131.969 50.2663C132.466 49.9194 132.929 49.6453 133.386 49.4047C133.169 50.1544 132.817 50.9935 132.929 51.5082C133.286 53.2313 135.149 53.6676 137.37 61.9305C138.089 64.6158 138.608 64.0843 138.647 66.2102C139.49 66.613 140.366 66.4899 141.169 66.2885C140.65 65.0465 140.126 64.571 139.529 63.413C138.809 62.0088 136.728 55.676 136.689 52.7893C136.644 49.4775 138.028 48.8677 139.205 45.3656C139.875 44.5376 140.589 43.6761 141.487 43.4859C143.133 43.1335 144.165 44.2803 145.604 44.8118C147.785 45.6118 148.773 45.7181 151.116 45.7181C152.823 45.7181 154.067 46.3334 154.636 46.7866C155.172 47.2117 155.434 48.4705 155.194 50.876C154.92 53.6453 155.032 54.4061 154.876 56.4928C154.642 59.5137 153.693 63.2675 153.799 64.4032C153.894 65.4605 153.453 66.2605 153.37 67.206C154.011 67.4465 154.619 67.4913 155.473 67.3123C155.434 66.3556 154.976 65.2759 155.127 64.2913C155.741 60.3361 156.382 57.7683 156.951 56.4033C157.749 54.4788 158.496 53.6005 159.752 50.311C160.231 54.697 160.566 54.5515 161.063 58.434C161.258 59.9445 161.849 63.2284 162.006 63.8661C162.245 64.8675 162.106 65.3095 162.128 66.4339C162.692 66.5962 163.255 66.5962 164.008 66.4339C163.807 65.3542 163.584 64.5934 163.423 63.6032C162.329 57.0242 162.798 56.297 162.881 54.1096C163.043 49.7236 163.261 47.6817 163.757 46.546C164.555 44.6999 166.351 44.6999 168.99 40.851C170.63 38.4566 173.23 37.4832 174.111 33.0748C174.541 30.9042 175.071 26.6972 175.791 25.2147C176.421 23.9169 177.085 23.8329 179.294 23.598C179.746 23.5476 181.989 23.4078 182.574 22.9155C183.16 22.4232 183.015 21.2316 182.831 20.8344L182.82 20.84ZM168.901 14.5295C167.941 13.6456 168.678 12.5491 168.795 11.3072C168.845 10.7701 168.8 9.99251 168.756 9.42189C168.722 8.99112 168.605 8.48204 168.393 8.07365C169.118 8.3198 169.86 8.28064 170.296 8.57714C171.054 9.09742 170.77 10.3953 171.835 12.0065C172.276 12.6722 172.644 13.2988 172.817 14.1547C172.94 14.7757 173.13 15.3743 173.33 15.9057C173.04 16.0288 172.689 16.1127 172.237 16.1575C171.177 16.2582 169.676 15.2344 168.906 14.5239L168.901 14.5295Z" fill="#4B68E3"/>
<path d="M204.994 43.1836C208.687 51.4073 215.075 49.6283 218.489 43.8829C212.586 45.6395 206.137 43.2004 203.527 31.3907C205.92 39.0997 210.991 38.0256 213.591 33.6508C208.732 35.0942 203.766 28.1851 202.338 20.6216C200.91 28.1851 195.945 35.0942 191.086 33.6508C193.686 38.0256 198.757 39.0997 201.15 31.3907C198.539 43.1948 192.096 45.6395 186.193 43.8829C189.608 49.6283 195.995 51.4073 199.688 43.1836C195.794 55.0436 188.257 57.4436 181.301 55.3681C185.234 61.9918 192.202 64.5708 197.089 57.6618C197.089 57.7345 197.094 57.8072 197.105 57.8856C197.474 61.0576 202.322 63.9946 202.344 64.0058C202.344 64.0058 207.214 61.0576 207.582 57.8856C207.588 57.8128 207.593 57.7401 207.599 57.6618C212.486 64.5652 219.454 61.9862 223.387 55.3681C216.43 57.438 208.893 55.038 204.999 43.1836H204.994ZM201.44 67.6309H203.242V64.4813H201.44V67.6309Z" fill="#4B68E3"/>
<path d="M202.333 10.0259L203.996 13.3993L207.706 13.9363L205.017 16.5657L205.653 20.2691L202.333 18.5181L199.014 20.2691L199.65 16.5657L196.961 13.9363L200.676 13.3993L202.333 10.0259Z" fill="#FC5B60"/>
</g>
<path d="M59.723 68.2117C58.66 68.0222 57.5026 67.6879 56.4147 67.7683C55.5412 67.8324 55.0488 68.4623 54.5014 69.0566C52.8608 70.8342 50.2922 73.201 48.4716 71.6021C50.9379 71.002 53.1763 69.5507 54.7515 67.5665C53.6784 67.4407 52.6471 67.0547 51.7481 67.8193C50.8847 68.5512 49.3019 71.6351 47.5288 70.7326C48.8136 69.5135 50.0983 68.2944 51.3805 67.0746L51.4091 67.0595C50.6872 66.9235 50.1131 66.6471 49.3878 66.9188C48.3847 67.2961 47.6055 69.0923 46.2 69.9808C45.5314 70.4045 44.6152 70.5409 43.9532 70.1048C45.5654 69.107 47.0004 67.8282 48.1883 66.3505C47.4778 66.1676 46.8359 66.0098 46.0997 66.0221C45.3302 66.0344 44.6268 66.4192 43.9203 66.6817C40.9643 67.7881 37.469 68.8144 35.5221 67.2232C38.579 67.1244 41.6099 66.4339 44.413 65.2181C43.5169 64.9123 42.7427 64.4486 41.7909 64.7861C40.9998 65.0665 40.3539 65.6338 39.5963 65.9803C37.8952 66.7548 34.2706 67.8791 33.0297 66.3648C35.9084 66.316 38.7659 65.4863 41.2263 63.9985C40.313 63.6166 39.5545 63.1789 38.5518 63.4873C37.7286 63.7405 37.0318 64.2677 36.256 64.6208C33.5819 65.8407 28.9125 67.31 27.3972 64.773C30.9862 65.6167 34.9401 64.7169 37.8159 62.4175C37.1543 62.0809 36.4988 61.652 35.7255 61.691C34.9855 61.7299 34.3582 62.2217 33.7466 62.5821C32.8017 63.1394 31.8029 63.6227 30.7395 63.9189C28.7226 64.4805 26.3622 64.2673 24.8174 62.8523C28.2791 63.5045 31.977 62.7572 34.9235 60.834C34.1146 60.3535 33.5487 59.6843 31.8037 59.9842C30.7378 60.1666 29.7435 60.6317 28.6863 60.8466C26.5541 61.2805 21.2355 61.6763 21.1424 59.5C24.5681 60.5575 28.3884 60.2461 31.6036 58.6706C30.7879 58.0946 30.2336 57.4227 29.1734 57.4133C28.0688 57.404 27.0564 57.8757 26.0204 58.1842C24.4651 58.6466 20.8049 59.522 19.2294 59.1098C18.5223 58.9249 17.5662 58.3227 17.324 57.6309C21.0941 58.3121 25.0617 57.8629 28.5815 56.354C28.0073 55.876 27.5143 55.36 26.8152 55.086C26.0228 54.7753 25.3442 55.0143 24.5368 55.1471C19.9971 55.8973 13.7842 53.7625 14.5946 51.2314C17.6786 53.7012 21.9028 54.6734 25.7598 53.8189C25.3063 53.3789 24.8605 52.7613 24.3091 52.449C22.7765 51.5809 21.0541 51.8228 19.3713 51.6106C17.3182 51.3516 11.9779 50.4059 12.3624 48.3581C15.6185 49.8239 19.1792 50.6026 22.7482 50.638C22.257 50.07 21.8565 49.4028 21.1637 49.0696C20.5309 48.7622 19.8197 48.695 19.1343 48.579C15.1473 47.9025 9.34866 45.1408 9.06671 42.5509C11.6003 44.0406 16.0909 47.0247 20.2352 47.4776C19.7671 46.8379 19.3673 46.0329 18.6339 45.6621C17.6595 45.1686 10.9889 45.1658 7.50185 41.3076C8.32073 41.1169 9.17319 41.4424 9.90031 41.8613C12.343 43.2707 15.1042 43.9247 17.8159 43.857C17.3801 43.1425 17.1195 42.5815 16.2836 42.3125C15.5991 42.0918 8.71341 41.3542 6.53192 36.4062C10.0423 37.7496 11.267 40.1627 16.0389 40.9106C14.0593 37.1221 13.9511 37.8437 11.4706 35.9915C10.3599 35.1635 7.60898 33.3195 7.99954 31.1793C7.98108 31.2769 8.66364 31.787 8.75654 31.8706C11.0535 33.9288 12.4384 34.8463 14.5484 37.1926C13.4402 34.7558 11.1967 29.9361 11.3148 27.3286C12.6908 28.5973 12.9115 29.5902 14.9548 35.5395C14.4157 31.2603 14.284 30.8055 14.4726 28.6654C15.045 29.4659 15.589 29.4368 15.9694 34.8226C16.0626 36.1321 15.967 37.7926 16.5856 39.0131C16.9248 39.6818 17.2692 40.3517 17.6241 41.0132C17.3301 35.7259 16.0199 34.167 15.4647 30.9329C18.4729 32.6194 18.5247 37.3723 18.5265 40.8541C18.5274 42.0773 18.3329 42.4519 19.0881 43.6231C19.0881 43.6231 20.2512 38.4759 18.9174 32.3532C19.9723 32.6319 20.4579 33.8417 20.6484 34.9128C21.6328 40.4306 19.2019 43.2618 20.3167 45.5816C20.4173 45.7913 20.9418 46.5166 21.265 46.9467C23.2154 41.9957 22.1128 38.3207 21.7293 35.4574C22.6318 36.063 23.2099 36.818 23.4154 37.8845C23.7296 39.5215 23.3096 42.952 22.9639 44.6395C22.7497 45.6911 22.2236 46.9532 22.4076 48.0392C22.5742 49.0161 23.5067 49.8941 24.0977 50.6413C24.06 48.8927 25.4169 44.8588 23.9019 38.7191C25.3723 39.0751 25.6892 40.7349 25.72 42.2415C25.8907 50.4277 23.3937 49.9823 26.4585 52.9802C27.0983 49.2863 27.08 45.4774 26.3872 41.7899C27.1333 41.9402 27.7018 42.588 27.9604 43.3031C28.4592 44.6846 28.0233 48.6302 27.8367 50.0531C27.6722 51.3074 27.1589 52.9564 27.8066 54.1261C28.1003 54.6538 28.7354 55.0529 29.1991 55.4402C30.231 52.4472 30.0458 49.0474 28.6445 46.2044C31.6802 46.5863 31.1368 51.1377 30.5054 54.0773C29.964 56.5945 30.2916 56.3989 32.2591 57.7826C33.3697 54.0305 33.3757 49.9543 32.2441 46.2059C35.7504 48.6912 33.3632 56.8145 33.8065 58.1852C34.0966 59.0764 34.8537 59.4972 35.6109 59.9401C36.1331 56.3525 35.0996 52.5315 33.6142 49.2206C37.3733 49.9349 36.5967 58.9015 36.7442 59.6969C36.8197 60.0992 36.9973 60.626 37.3263 60.8974C37.6873 61.196 38.2687 61.3858 38.6912 61.5919C39.4287 57.5906 38.8168 53.3487 36.9384 49.7342C39.8609 51.9269 40.4035 55.8315 40.0494 59.4328C39.9808 60.1392 39.7581 60.8989 39.9737 61.5979C40.2454 62.4847 41.0785 62.6978 41.8566 63.0105C42.396 59.4548 41.8888 55.7438 40.382 52.4746C42.4475 53.6063 44.1669 56.3591 43.5902 61.1812C43.5111 61.8519 43.3555 62.6088 43.703 63.2325C44.0905 63.9297 44.7174 64.0699 45.4312 64.2951C46.1256 61.6057 46.4247 58.8136 46.3048 56.0371C48.1393 56.6786 47.6186 59.4494 46.9534 62.5381C46.8238 63.1439 46.5332 63.8759 46.8226 64.4771C47.1047 65.0627 48.0423 65.042 48.6066 65.1779C49.0899 62.4918 48.1309 59.6057 47.1473 57.0559C50.2567 57.4642 49.6241 63.6391 49.9377 64.7156C50.1746 65.5303 51.0962 65.7099 51.8278 65.829C51.898 63.011 51.5199 60.1821 50.7005 57.4822C53.5272 58.3649 51.9994 64.5681 53.0255 65.8308C53.4121 66.3069 54.445 66.1798 55.0128 66.2338C55.073 63.659 54.5467 61.0726 53.4735 58.7299C55.6291 59.0334 55.5509 62.1201 55.7855 64.7452C55.8341 65.279 55.9721 65.9672 56.4758 66.2705C57.088 66.6391 58.1622 66.4228 58.8419 66.427C60.9421 66.4381 62.6896 68.7395 59.7204 68.2111L59.723 68.2117Z" fill="#4B68E3"/>
<path d="M86.8727 59.4809C86.5553 56.6218 88.8822 54.0422 91.3176 52.8956C93.7278 51.7522 96.1073 51.2278 98.5643 49.4859C101.858 47.1531 104.049 43.8909 107.162 40.5213C102.531 42.0586 94.5431 40.0673 88.9877 49.5773C87.7263 51.7365 87.1355 54.1193 86.3529 56.4916C85.2653 37.199 96.2554 29.6795 100.883 32.3205C102.667 33.3377 105.059 34.3219 107.148 33.7752C112.549 32.3613 113.391 25.3378 116.902 26.8049C118.936 27.6528 119.042 28.7429 123.758 28.318C120.497 24.502 117.939 26.624 115.753 25.1165C118.815 22.6376 120.661 25.0572 124.649 20.6716C123.095 20.2361 120.775 20.4687 119.249 21.4067C117.838 22.2713 116.943 23.447 115.158 23.4261C115.845 22.0137 117.17 21.2447 117.909 20.0629C118.819 18.6088 118.692 17.8462 118.965 16.5027C114.492 18.0715 116.467 21.8081 113.767 22.2566C110.799 22.7478 108.344 18.088 103.351 20.4102C99.908 22.0152 99.7986 24.954 98.9637 27.1394C97.2659 31.5879 92.2842 31.2211 88.5467 38.1902C86.1739 42.6076 85.2698 47.5 85.2068 52.4932C85.1965 52.4234 85.18 52.3529 85.1697 52.2832C85.1599 52.4689 85.1562 52.6552 85.1494 52.8163C85.1383 54.5712 85.128 56.3199 85.1169 58.0748C85.1189 58.1622 85.1071 58.2604 85.096 58.3525C85.7678 62.8795 84.8758 66.0607 86.4237 68.6813C89.7062 66.8577 87.1175 61.6463 86.8727 59.4809Z" fill="#4B68E3"/>
<path d="M69.5166 49.7933C70.1748 45.1526 69.8634 43.5099 69.6624 41.1411C69.2171 35.9722 69.7925 28.7568 63.5418 26.652C61.0865 25.8249 57.3582 27.7122 60.2983 32.4733C61.8629 35.0091 64.1961 36.9664 66.139 39.2071C70.1078 43.7818 68.8072 47.6069 68.1884 51.4593C67.0692 49.0671 64.4443 46.6438 62.6038 44.9584C59.6835 42.2905 57.8154 38.1236 54.091 36.3722C47.5369 33.2927 44.7702 43.6187 56.1049 44.5623C58.4696 44.7604 61.5555 45.0128 64.0503 47.6147C67.4593 51.1719 69.4614 55.8009 69.9343 60.7756C68.2475 58.9271 67.5342 59.2222 65.7528 56.5699C62.9901 52.4534 58.9189 51.0865 56.6606 51.6379C54.2763 52.2204 53.7876 54.6553 55.498 56.2941C57.1296 57.8553 60.1801 58.232 62.328 58.3951C64.1094 58.5349 65.6819 58.6164 67.2701 59.5834C68.8387 60.5387 69.6939 62.1736 70.2417 63.8513C70.5255 64.7173 70.7344 65.6104 70.9472 66.4959C71.2192 67.622 71.1876 68.6978 71.9798 69.6337C72.2596 69.9676 72.7365 70.1773 73.1464 70.0259C71.3965 66.5502 71.2113 63.0357 70.8369 59.2727C70.5649 56.531 71.7867 54.0184 73.0439 51.6457C75.5032 47.0167 81.1114 46.2905 83.2278 43.941C86.4083 40.4149 81.6513 35.9955 77.0599 40.9546C73.8912 44.3721 73.4853 48.2322 70.9866 53.8087C70.8881 54.0301 70.2615 55.5835 70.0289 56.2902C69.4062 54.267 68.9491 53.8049 69.5166 49.7855L69.5166 49.7933ZM63.8887 31.3548C65.201 30.0811 68.8151 33.3354 68.1057 39.4712C66.9391 37.5334 62.2373 32.9548 63.8887 31.3548ZM52.9639 40.0886C53.4801 38.4265 57.0429 39.4906 59.3682 43.4051C54.9384 43.141 52.5106 41.541 52.9639 40.0886ZM58.848 55.9174C56.7395 53.8903 60.2943 51.8243 64.7084 57.2728C62.8797 57.199 60.318 57.331 58.848 55.9174ZM79.5113 41.5993C80.2128 41.5333 80.7133 42.0575 80.6779 42.776C80.5872 44.6478 77.0914 46.4147 75.4046 46.6439C76.2756 43.3313 78.1398 41.7236 79.5113 41.5993Z" fill="#4B68E3"/>
<path d="M343.98 68.2117C345.043 68.0222 346.201 67.6879 347.288 67.7683C348.162 67.8324 348.654 68.4623 349.202 69.0566C350.842 70.8342 353.411 73.201 355.231 71.6021C352.765 71.002 350.527 69.5507 348.952 67.5665C350.025 67.4407 351.056 67.0547 351.955 67.8193C352.818 68.5512 354.401 71.6351 356.174 70.7326C354.89 69.5135 353.605 68.2944 352.323 67.0746L352.294 67.0595C353.016 66.9235 353.59 66.6471 354.315 66.9188C355.318 67.2961 356.098 69.0923 357.503 69.9808C358.172 70.4045 359.088 70.5409 359.75 70.1048C358.138 69.107 356.703 67.8282 355.515 66.3505C356.225 66.1676 356.867 66.0098 357.603 66.0221C358.373 66.0344 359.076 66.4192 359.783 66.6817C362.739 67.7881 366.234 68.8144 368.181 67.2232C365.124 67.1244 362.093 66.4339 359.29 65.2181C360.186 64.9123 360.96 64.4486 361.912 64.7861C362.703 65.0665 363.349 65.6338 364.107 65.9803C365.808 66.7548 369.432 67.8791 370.673 66.3648C367.795 66.316 364.937 65.4863 362.477 63.9985C363.39 63.6166 364.149 63.1789 365.151 63.4873C365.975 63.7405 366.671 64.2677 367.447 64.6208C370.121 65.8407 374.791 67.31 376.306 64.773C372.717 65.6167 368.763 64.7169 365.887 62.4175C366.549 62.0809 367.204 61.652 367.978 61.691C368.718 61.7299 369.345 62.2217 369.956 62.5821C370.901 63.1394 371.9 63.6227 372.964 63.9189C374.98 64.4805 377.341 64.2673 378.886 62.8523C375.424 63.5045 371.726 62.7572 368.78 60.834C369.588 60.3535 370.154 59.6843 371.899 59.9842C372.965 60.1666 373.96 60.6317 375.017 60.8466C377.149 61.2805 382.468 61.6763 382.561 59.5C379.135 60.5575 375.315 60.2461 372.099 58.6706C372.915 58.0946 373.47 57.4227 374.53 57.4133C375.634 57.404 376.647 57.8757 377.683 58.1842C379.238 58.6466 382.898 59.522 384.474 59.1098C385.181 58.9249 386.137 58.3227 386.379 57.6309C382.609 58.3121 378.641 57.8629 375.122 56.354C375.696 55.876 376.189 55.36 376.888 55.086C377.68 54.7753 378.359 55.0143 379.166 55.1471C383.706 55.8973 389.919 53.7625 389.109 51.2314C386.025 53.7012 381.8 54.6734 377.943 53.8189C378.397 53.3789 378.843 52.7613 379.394 52.449C380.927 51.5809 382.649 51.8228 384.332 51.6106C386.385 51.3516 391.725 50.4059 391.341 48.3581C388.085 49.8239 384.524 50.6026 380.955 50.638C381.446 50.07 381.847 49.4028 382.539 49.0696C383.172 48.7622 383.883 48.695 384.569 48.579C388.556 47.9025 394.354 45.1408 394.636 42.5509C392.103 44.0406 387.612 47.0247 383.468 47.4776C383.936 46.8379 384.336 46.0329 385.069 45.6621C386.044 45.1686 392.714 45.1658 396.201 41.3076C395.382 41.1169 394.53 41.4424 393.803 41.8613C391.36 43.2707 388.599 43.9247 385.887 43.857C386.323 43.1425 386.584 42.5815 387.42 42.3125C388.104 42.0918 394.99 41.3542 397.171 36.4062C393.661 37.7496 392.436 40.1627 387.664 40.9106C389.644 37.1221 389.752 37.8437 392.232 35.9915C393.343 35.1635 396.094 33.3195 395.704 31.1793C395.722 31.2769 395.039 31.787 394.947 31.8706C392.65 33.9288 391.265 34.8463 389.155 37.1926C390.263 34.7558 392.506 29.9361 392.388 27.3286C391.012 28.5973 390.792 29.5902 388.748 35.5395C389.287 31.2603 389.419 30.8055 389.231 28.6654C388.658 29.4659 388.114 29.4368 387.734 34.8226C387.641 36.1321 387.736 37.7926 387.118 39.0131C386.778 39.6818 386.434 40.3517 386.079 41.0132C386.373 35.7259 387.683 34.167 388.238 30.9329C385.23 32.6194 385.178 37.3723 385.177 40.8541C385.176 42.0773 385.37 42.4519 384.615 43.6231C384.615 43.6231 383.452 38.4759 384.786 32.3532C383.731 32.6319 383.245 33.8417 383.055 34.9128C382.07 40.4306 384.501 43.2618 383.386 45.5816C383.286 45.7913 382.761 46.5166 382.438 46.9467C380.488 41.9957 381.59 38.3207 381.974 35.4574C381.071 36.063 380.493 36.818 380.288 37.8845C379.974 39.5215 380.394 42.952 380.739 44.6395C380.953 45.6911 381.48 46.9532 381.296 48.0392C381.129 49.0161 380.196 49.8941 379.605 50.6413C379.643 48.8927 378.286 44.8588 379.801 38.7191C378.331 39.0751 378.014 40.7349 377.983 42.2415C377.812 50.4277 380.309 49.9823 377.245 52.9802C376.605 49.2863 376.623 45.4774 377.316 41.7899C376.57 41.9402 376.001 42.588 375.743 43.3031C375.244 44.6846 375.68 48.6302 375.866 50.0531C376.031 51.3074 376.544 52.9564 375.896 54.1261C375.603 54.6538 374.968 55.0529 374.504 55.4402C373.472 52.4472 373.657 49.0474 375.059 46.2044C372.023 46.5863 372.566 51.1377 373.198 54.0773C373.739 56.5945 373.412 56.3989 371.444 57.7826C370.333 54.0305 370.327 49.9543 371.459 46.2059C367.953 48.6912 370.34 56.8145 369.897 58.1852C369.607 59.0764 368.849 59.4972 368.092 59.9401C367.57 56.3525 368.604 52.5315 370.089 49.2206C366.33 49.9349 367.106 58.9015 366.959 59.6969C366.883 60.0992 366.706 60.626 366.377 60.8974C366.016 61.196 365.434 61.3858 365.012 61.5919C364.274 57.5906 364.886 53.3487 366.765 49.7342C363.842 51.9269 363.3 55.8315 363.654 59.4328C363.722 60.1392 363.945 60.8989 363.729 61.5979C363.458 62.4847 362.625 62.6978 361.847 63.0105C361.307 59.4548 361.814 55.7438 363.321 52.4746C361.256 53.6063 359.536 56.3591 360.113 61.1812C360.192 61.8519 360.348 62.6088 360 63.2325C359.613 63.9297 358.986 64.0699 358.272 64.2951C357.578 61.6057 357.278 58.8136 357.398 56.0371C355.564 56.6786 356.084 59.4494 356.75 62.5381C356.879 63.1439 357.17 63.8759 356.881 64.4771C356.598 65.0627 355.661 65.042 355.097 65.1779C354.613 62.4918 355.572 59.6057 356.556 57.0559C353.446 57.4642 354.079 63.6391 353.765 64.7156C353.528 65.5303 352.607 65.7099 351.875 65.829C351.805 63.011 352.183 60.1821 353.003 57.4822C350.176 58.3649 351.704 64.5681 350.678 65.8308C350.291 66.3069 349.258 66.1798 348.69 66.2338C348.63 63.659 349.156 61.0726 350.23 58.7299C348.074 59.0334 348.152 62.1201 347.918 64.7452C347.869 65.279 347.731 65.9672 347.227 66.2705C346.615 66.6391 345.541 66.4228 344.861 66.427C342.761 66.4381 341.014 68.7395 343.983 68.2111L343.98 68.2117Z" fill="#4B68E3"/>
<path d="M316.83 59.4809C317.148 56.6218 314.821 54.0422 312.385 52.8956C309.975 51.7522 307.596 51.2278 305.139 49.4859C301.845 47.1531 299.654 43.8909 296.541 40.5213C301.172 42.0586 309.16 40.0673 314.715 49.5773C315.977 51.7365 316.568 54.1193 317.35 56.4916C318.438 37.199 307.448 29.6795 302.82 32.3205C301.036 33.3377 298.644 34.3219 296.555 33.7752C291.154 32.3613 290.312 25.3378 286.801 26.8049C284.767 27.6528 284.661 28.7429 279.945 28.318C283.206 24.502 285.764 26.624 287.95 25.1165C284.888 22.6376 283.042 25.0572 279.054 20.6716C280.608 20.2361 282.928 20.4687 284.454 21.4067C285.865 22.2713 286.76 23.447 288.545 23.4261C287.859 22.0137 286.533 21.2447 285.794 20.0629C284.885 18.6088 285.011 17.8462 284.738 16.5027C289.211 18.0715 287.236 21.8081 289.937 22.2566C292.904 22.7478 295.359 18.088 300.352 20.4102C303.795 22.0152 303.905 24.954 304.739 27.1394C306.437 31.5879 311.419 31.2211 315.156 38.1902C317.529 42.6076 318.433 47.5 318.496 52.4932C318.507 52.4234 318.523 52.3529 318.533 52.2832C318.543 52.4689 318.547 52.6552 318.554 52.8163C318.565 54.5712 318.575 56.3199 318.586 58.0748C318.584 58.1622 318.596 58.2604 318.607 58.3525C317.935 62.8795 318.827 66.0607 317.279 68.6813C313.997 66.8577 316.586 61.6463 316.83 59.4809Z" fill="#4B68E3"/>
<path d="M334.187 49.7933C333.528 45.1526 333.84 43.5099 334.041 41.1411C334.486 35.9722 333.911 28.7568 340.161 26.652C342.617 25.8249 346.345 27.7122 343.405 32.4733C341.84 35.0091 339.507 36.9664 337.564 39.2071C333.595 43.7818 334.896 47.6069 335.515 51.4593C336.634 49.0671 339.259 46.6438 341.099 44.9584C344.02 42.2905 345.888 38.1236 349.612 36.3722C356.166 33.2927 358.933 43.6187 347.598 44.5623C345.234 44.7604 342.148 45.0128 339.653 47.6147C336.244 51.1719 334.242 55.8009 333.769 60.7756C335.456 58.9271 336.169 59.2222 337.95 56.5699C340.713 52.4534 344.784 51.0865 347.042 51.6379C349.427 52.2204 349.916 54.6553 348.205 56.2941C346.573 57.8553 343.523 58.232 341.375 58.3951C339.594 58.5349 338.021 58.6164 336.433 59.5834C334.864 60.5387 334.009 62.1736 333.461 63.8513C333.178 64.7173 332.969 65.6104 332.756 66.4959C332.484 67.622 332.515 68.6978 331.723 69.6337C331.444 69.9676 330.967 70.1773 330.557 70.0259C332.307 66.5502 332.492 63.0357 332.866 59.2727C333.138 56.531 331.916 54.0184 330.659 51.6457C328.2 47.0167 322.592 46.2905 320.475 43.941C317.295 40.4149 322.052 35.9955 326.643 40.9546C329.812 44.3721 330.218 48.2322 332.717 53.8087C332.815 54.0301 333.442 55.5835 333.674 56.2902C334.297 54.267 334.754 53.8049 334.187 49.7855L334.187 49.7933ZM339.814 31.3548C338.502 30.0811 334.888 33.3354 335.597 39.4712C336.764 37.5334 341.466 32.9548 339.814 31.3548ZM350.739 40.0886C350.223 38.4265 346.66 39.4906 344.335 43.4051C348.765 43.141 351.192 41.541 350.739 40.0886ZM344.855 55.9174C346.964 53.8903 343.409 51.8243 338.995 57.2728C340.823 57.199 343.385 57.331 344.855 55.9174ZM324.192 41.5993C323.49 41.5333 322.99 42.0575 323.025 42.776C323.116 44.6478 326.612 46.4147 328.298 46.6439C327.428 43.3313 325.563 41.7236 324.192 41.5993Z" fill="#4B68E3"/>
<defs>
<clipPath id="clip0_179_21729">
<rect width="156.283" height="67.0875" fill="white" transform="translate(124.203 0.543457)"/>
</clipPath>
</defs>
</svg>
